Jump_normalized_pl06_filtered_grf
version=1
nRows=20
nColumns=37
inDegrees=yes
endheader
time		1_ground_force_vx		1_ground_force_vy		1_ground_force_vz		1_ground_force_px		1_ground_force_py		1_ground_force_pz		1_ground_torque_x		1_ground_torque_y		1_ground_torque_z		2_ground_force_vx		2_ground_force_vy		2_ground_force_vz		2_ground_force_px		2_ground_force_py		2_ground_force_pz		2_ground_torque_x		2_ground_torque_y		2_ground_torque_z		3_ground_force_vx		3_ground_force_vy		3_ground_force_vz		3_ground_force_px		3_ground_force_py		3_ground_force_pz		3_ground_torque_x		3_ground_torque_y		3_ground_torque_z		4_ground_force_vx		4_ground_force_vy		4_ground_force_vz		4_ground_force_px		4_ground_force_py		4_ground_force_pz		4_ground_torque_x		4_ground_torque_y		4_ground_torque_z		
0.399500		0.000000		-0.000000		-0.000000		0.165178		0.000000		0.161360		-0.000000		-0.000000		0.000000		-0.000000		-0.000000		-0.000000		-0.234587		0.000000		0.187931		-0.000000		0.000000		-0.000000		-110.217248		623.970171		4.060095		0.413261		1.261858		1.877532		6.442084		-36.470410		-0.237308		131.714070		738.457890		-49.803615		-0.354768		1.255267		1.904748		8.026399		45.000184		-3.034935		
0.402000		0.000000		-0.000000		-0.000000		0.165178		0.000000		0.161360		-0.000000		-0.000000		0.000000		-0.000000		-0.000000		-0.000000		-0.234587		0.000000		0.187931		-0.000000		0.000000		-0.000000		-109.481959		617.719853		-0.095725		0.413243		1.261867		1.877549		6.403437		-36.129517		0.005599		131.189830		729.005163		-55.368575		-0.354759		1.255272		1.904790		8.028284		44.612153		-3.388332		
0.404500		0.000000		-0.000000		-0.000000		0.165178		0.000000		0.161360		-0.000000		-0.000000		0.000000		-0.000000		0.000000		0.000000		-0.234587		0.000000		0.187931		0.000000		-0.000000		0.000000		-108.607296		611.351966		-4.403378		0.413225		1.261878		1.877565		6.358294		-35.790923		0.257791		130.616706		719.206607		-60.809096		-0.354749		1.255280		1.904831		8.025507		44.190346		-3.736305		
0.407000		0.000000		0.000000		0.000000		0.165178		0.000000		0.161360		0.000000		-0.000000		-0.000000		0.000000		0.000000		0.000000		-0.234587		0.000000		0.187931		0.000000		-0.000000		0.000000		-107.586222		604.893583		-8.872122		0.413210		1.261891		1.877581		6.306308		-35.456633		0.520051		129.985342		709.067723		-66.110770		-0.354738		1.255289		1.904870		8.017134		43.733323		-4.077528		
0.409500		-0.000000		0.000000		0.000000		0.165178		0.000000		0.161360		0.000000		0.000000		-0.000000		0.000000		0.000000		0.000000		-0.234587		0.000000		0.187931		0.000000		-0.000000		0.000000		-106.410022		598.359355		-13.515923		0.413198		1.261905		1.877600		6.246976		-35.127674		0.793475		129.281839		698.593587		-71.258664		-0.354726		1.255300		1.904908		8.002001		43.239998		-4.410611		
0.412000		-0.000000		0.000000		0.000000		0.165178		0.000000		0.161360		0.000000		0.000000		-0.000000		0.000000		0.000000		0.000000		-0.234587		0.000000		0.187931		0.000000		-0.000000		0.000000		-105.068428		591.747897		-18.351899		0.413189		1.261921		1.877622		6.179636		-34.803858		1.079373		128.488178		687.789091		-76.235583		-0.354711		1.255312		1.904944		7.978750		42.709742		-4.734012		
0.414500		-0.000000		0.000000		0.000000		0.165178		0.000000		0.161360		0.000000		0.000000		-0.000000		0.000000		0.000000		0.000000		-0.234587		0.000000		0.187931		0.000000		-0.000000		0.000000		-103.549972		585.040019		-23.397782		0.413183		1.261939		1.877648		6.103480		-34.483639		1.379120		127.582969		676.659461		-81.020879		-0.354695		1.255327		1.904979		7.945889		42.142464		-5.045994		
0.417000		-0.000000		0.000000		0.000000		0.165178		0.000000		0.161360		0.000000		0.000000		-0.000000		0.000000		0.000000		0.000000		-0.234587		0.000000		0.187931		0.000000		-0.000000		0.000000		-101.842522		578.199033		-28.668849		0.413181		1.261957		1.877680		6.017576		-34.164084		1.693958		126.542414		665.211087		-85.590063		-0.354675		1.255343		1.905012		7.901861		41.538684		-5.344617		
0.419500		-0.000000		0.000000		0.000000		0.165178		0.000000		0.161360		0.000000		0.000000		-0.000000		0.000000		0.000000		0.000000		-0.234587		0.000000		0.187931		0.000000		-0.000000		0.000000		-99.933922		571.173059		-34.174811		0.413181		1.261977		1.877718		5.920900		-33.840945		2.024794		125.341401		653.452652		-89.915375		-0.354652		1.255362		1.905045		7.845114		40.899577		-5.627800		
0.422000		-0.000000		0.000000		0.000000		0.165178		0.000000		0.161360		0.000000		0.000000		-0.000000		0.000000		0.000000		0.000000		-0.234587		0.000000		0.187931		0.000000		-0.000000		0.000000		-97.812674		563.899013		-39.917078		0.413182		1.261998		1.877762		5.812375		-33.508875		2.372014		123.954688		641.396440		-93.967295		-0.354626		1.255383		1.905076		7.774176		40.227027		-5.893430		
0.424500		-0.000000		0.000000		0.000000		0.165178		0.000000		0.161360		0.000000		0.000000		-0.000000		0.000000		0.000000		0.000000		-0.234587		0.000000		0.187931		0.000000		-0.000000		0.000000		-95.468680		556.307815		-45.886691		0.413183		1.262020		1.877814		5.690929		-33.161745		2.735325		122.358071		629.059636		-97.716879		-0.354597		1.255405		1.905107		7.687726		39.523652		-6.139526		
0.427000		-0.000000		0.000000		0.000000		0.165178		0.000000		0.161360		0.000000		0.000000		-0.000000		0.000000		-0.000000		0.000000		-0.234587		0.000000		0.187931		0.000000		-0.000000		-0.000000		-92.894127		548.330264		-52.063168		0.413185		1.262043		1.877871		5.555563		-32.793067		3.113654		120.529459		616.465418		-101.138658		-0.354565		1.255429		1.905137		7.584659		38.792838		-6.364437		
0.429500		-0.000000		0.000000		0.000000		0.165178		0.000000		0.161360		0.000000		0.000000		-0.000000		-0.000000		-0.000000		-0.000000		-0.234587		0.000000		0.187931		-0.000000		0.000000		-0.000000		-90.084534		539.902980		-58.414477		0.413184		1.262068		1.877934		5.405450		-32.396446		3.505114		118.449780		603.643653		-104.213765		-0.354530		1.255454		1.905167		7.464139		38.038740		-6.567054		
0.432000		-0.000000		-0.000000		-0.000000		0.165178		0.000000		0.161360		-0.000000		-0.000000		0.000000		-0.000000		-0.000000		-0.000000		-0.234587		0.000000		0.187931		-0.000000		0.000000		-0.000000		-87.039938		530.973874		-64.898241		0.413181		1.262094		1.878002		5.240029		-31.965998		3.907042		116.103737		590.631003		-106.932950		-0.354493		1.255478		1.905195		7.325641		37.266248		-6.747004		
0.434500		0.000000		-0.000000		-0.000000		0.165178		0.000000		0.161360		-0.000000		-0.000000		0.000000		-0.000000		-0.000000		-0.000000		-0.234587		0.000000		0.187931		-0.000000		0.000000		-0.000000		-83.766239		521.506661		-71.463976		0.413175		1.262121		1.878073		5.059112		-31.496705		4.316109		113.480487		577.470258		-109.299088		-0.354455		1.255503		1.905222		7.168969		36.480866		-6.904815		
0.437000		0.000000		-0.000000		-0.000000		0.165178		0.000000		0.161360		-0.000000		-0.000000		0.000000		-0.000000		-0.000000		-0.000000		-0.234587		0.000000		0.187931		-0.000000		0.000000		-0.000000		-80.276639		511.484053		-78.055939		0.413164		1.262150		1.878146		4.862999		-30.984687		4.728474		110.574356		564.208710		-111.328797		-0.354416		1.255526		1.905247		6.994273		35.688472		-7.041994		
0.439500		0.000000		-0.000000		-0.000000		0.165178		0.000000		0.161360		-0.000000		-0.000000		0.000000		-0.000000		-0.000000		-0.000000		-0.234587		0.000000		0.187931		-0.000000		0.000000		-0.000000		-76.592916		500.909359		-84.616104		0.413150		1.262181		1.878218		4.652585		-30.427398		5.139948		107.385651		550.895432		-113.052744		-0.354377		1.255547		1.905271		6.802044		34.894931		-7.161010		
0.442000		0.000000		-0.000000		-0.000000		0.165178		0.000000		0.161360		-0.000000		-0.000000		0.000000		-0.000000		-0.000000		-0.000000		-0.234587		0.000000		0.187931		-0.000000		0.000000		-0.000000		-72.746155		489.806377		-91.086925		0.413131		1.262212		1.878289		4.429428		-29.823736		5.546176		103.921515		537.577418		-114.514342		-0.354337		1.255566		1.905293		6.593104		34.105581		-7.265145		
0.444500		0.000000		-0.000000		-0.000000		0.165178		0.000000		0.161360		-0.000000		-0.000000		0.000000		-0.000000		-0.000000		-0.000000		-0.234587		0.000000		0.187931		-0.000000		0.000000		-0.000000		-68.776638		478.217560		-97.413636		0.413107		1.262245		1.878357		4.195773		-29.174038		5.942795		100.196764		524.294732		-115.766735		-0.354299		1.255583		1.905313		6.368588		33.324600		-7.358228		
0.447000		0.000000		-0.000000		-0.000000		0.165178		0.000000		0.161360		-0.000000		-0.000000		0.000000		-0.000000		-0.000000		-0.000000		-0.234587		0.000000		0.187931		-0.000000		0.000000		-0.000000		-64.732722		466.200618		-103.545904		0.413079		1.262278		1.878421		3.954492		-28.479978		6.325571		96.234614		511.075123		-116.868183		-0.354260		1.255598		1.905330		6.129933		32.554360		-7.444246		
